<?xml version="1.0" encoding="utf-8" ?>
<svg xmlns="http://www.w3.org/2000/svg" xmlns:xlink="http://www.w3.org/1999/xlink" width="1024" height="1024">
	<path fill="#FDC60C" d="M555.075 340.94C565.921 342.668 576.836 343.492 587.74 344.727C604.824 346.661 621.92 348.794 638.937 351.256C716.389 362.458 793.191 377.943 867.715 402.13C876.529 404.99 900.868 411.73 907.079 416.029L907.487 691.912C917.789 694.85 926.693 700.324 932.089 709.864C934.699 714.479 936.077 719.577 936.599 724.834C937.571 734.623 935.971 744.837 935.557 754.659C934.991 768.092 935.139 781.878 936.057 795.297C937.169 811.538 940.483 826.932 942.989 842.956L884.156 842.983C872.994 843.028 861 844.074 849.974 842.232C850.679 834.942 852.62 827.875 853.856 820.67C855.616 810.407 856.542 799.679 856.954 789.273C857.447 776.806 857.259 764.195 856.717 751.735C856.282 741.754 854.401 730.782 856.357 720.928C857.99 712.697 862.07 705.435 868.595 700.106C873.747 695.899 879.66 693.259 886.057 691.585L885.646 483.144C885.581 472.539 885.431 461.922 885.571 451.319C885.644 445.839 886.135 440.294 886.023 434.828C885.988 433.079 885.747 430.828 884.513 429.481C883.378 428.241 881.821 428.151 880.265 428.238C879.732 428.268 879.239 428.344 878.724 428.483C864.797 424.409 851.092 419.735 837.204 415.553C809.511 407.211 781.574 399.581 753.309 393.406C683.17 378.083 612.016 370.671 541.104 360.248C543.497 358.773 546.002 357.159 548.125 355.311C552.899 351.157 554.607 347.101 555.075 340.94Z"/>
	<path fill="#152D5C" d="M541.104 360.248C612.016 370.671 683.17 378.083 753.309 393.406C781.574 399.581 809.511 407.211 837.204 415.553C851.092 419.735 864.797 424.409 878.724 428.483C867.684 434.268 806.018 458.828 802.286 462.472C744.547 489.585 684.714 512.15 626.334 537.811L544.888 573.886C538.179 576.913 531.557 580.105 524.955 583.356C520.918 585.344 516.786 587.755 512.541 589.211C512.496 585.998 513.046 582.7 513.016 579.427L512.123 437.623L512.056 393.475C512.034 384.623 511.493 375.4 512.562 366.612C522.759 366.545 531.705 364.07 541.104 360.248Z"/>
	<path fill="#152D5C" d="M513.18 174.961L835.949 313.572L938.529 357.271L972.391 371.726C978.576 374.374 985.159 376.789 991.06 380.008L936.888 403.28C927.018 407.547 917.196 412.393 907.079 416.029C900.868 411.73 876.529 404.99 867.715 402.13C793.191 377.943 716.389 362.458 638.937 351.256C621.92 348.794 604.824 346.661 587.74 344.727C576.836 343.492 565.921 342.668 555.075 340.94C553.914 338.053 552.637 335.711 550.567 333.334C541.243 322.631 526.311 320.607 512.98 319.739C513.195 301.162 512.315 282.786 512.07 264.246C511.675 234.446 512.042 204.729 513.18 174.961Z"/>
	<path fill="#152D5C" d="M222.112 524.778C236.067 525.48 255.232 530.827 269.067 534.244C344.079 552.772 440.678 591.197 493.149 649.256C500.204 657.063 506.606 665.158 512.132 674.127L512.137 795.777C512.151 804.578 510.98 841.889 512.952 847.185C512.331 847.245 511.707 847.262 511.084 847.282C500.115 847.645 488.564 845.167 477.768 843.388C398.966 830.401 323.911 793.709 258.912 748.077C246.375 739.276 233.392 730.732 222.169 720.26C221.8 713.418 222.121 706.42 222.125 699.56L222.133 660.04L222.112 524.778Z"/>
	<path fill="#071836" d="M222.359 461.878C294.964 493.034 368.007 522.934 439.79 555.98L483.199 576.025C491.719 580.058 500.177 584.567 508.835 588.264C510.054 588.784 511.208 589.166 512.541 589.211C516.786 587.755 520.918 585.344 524.955 583.356C531.557 580.105 538.179 576.913 544.888 573.886L626.334 537.811C684.714 512.15 744.547 489.585 802.286 462.472C802.707 488.835 802.445 515.211 802.511 541.577L802.451 721.36C786.367 736.22 766.628 748.08 748.134 759.692C694.763 793.203 636.255 822.896 574.655 837.533C554.233 842.386 533.835 845.257 512.952 847.185C510.98 841.889 512.151 804.578 512.137 795.777L512.132 674.127C506.606 665.158 500.204 657.063 493.149 649.256C440.678 591.197 344.079 552.772 269.067 534.244C255.232 530.827 236.067 525.48 222.112 524.778C223.088 503.997 222.31 482.707 222.359 461.878Z"/>
	<path fill="#264480" d="M32.1791 379.975C45.1037 374.089 58.3195 368.723 71.3778 363.134L147.968 330.419L366.015 237.157L460.706 196.515C468.708 193.071 507.521 175.362 513.18 174.961C512.042 204.729 511.675 234.446 512.07 264.246C512.315 282.786 513.195 301.162 512.98 319.739C526.311 320.607 541.243 322.631 550.567 333.334C552.637 335.711 553.914 338.053 555.075 340.94C554.607 347.101 552.899 351.157 548.125 355.311C546.002 357.159 543.497 358.773 541.104 360.248C531.705 364.07 522.759 366.545 512.562 366.612C511.493 375.4 512.034 384.623 512.056 393.475L512.123 437.623L513.016 579.427C513.046 582.7 512.496 585.998 512.541 589.211C511.208 589.166 510.054 588.784 508.835 588.264C500.177 584.567 491.719 580.058 483.199 576.025L439.79 555.98C368.007 522.934 294.964 493.034 222.359 461.878C219.855 459.151 48.4431 386.698 32.1791 379.975Z"/>
	<path fill="#FB3708" d="M512.98 319.739C526.311 320.607 541.243 322.631 550.567 333.334C552.637 335.711 553.914 338.053 555.075 340.94C554.607 347.101 552.899 351.157 548.125 355.311C546.002 357.159 543.497 358.773 541.104 360.248C531.705 364.07 522.759 366.545 512.562 366.612C501.389 365.446 489.428 363.268 480.688 355.609C477.109 352.473 474.191 348.145 474.003 343.257C473.831 338.782 476.032 334.703 479.04 331.529C487.402 322.706 501.379 320.163 512.98 319.739Z"/>
</svg>
